<?xml version="1.0" encoding="UTF-8" standalone="no"?>
<!-- Created with Sodipodi ("http://www.sodipodi.com/") -->

<svg
   xmlns:dc="http://purl.org/dc/elements/1.1/"
   xmlns:cc="http://creativecommons.org/ns#"
   xmlns:rdf="http://www.w3.org/1999/02/22-rdf-syntax-ns#"
   xmlns:svg="http://www.w3.org/2000/svg"
   xmlns="http://www.w3.org/2000/svg"
   xmlns:sodipodi="http://sodipodi.sourceforge.net/DTD/sodipodi-0.dtd"
   xmlns:inkscape="http://www.inkscape.org/namespaces/inkscape"
   xml:space="preserve"
   width="632.4978"
   height="761.50787"
   style="fill-rule:evenodd"
   viewBox="0 0 13177.489 19036.21"
   id="svg2"
   sodipodi:version="0.34"
   inkscape:version="0.48.3.1 r9886"
   sodipodi:docname="Bass_clef.svg"
   version="1.1"><metadata
     id="metadata22"><rdf:RDF><cc:Work
         rdf:about=""><dc:format>image/svg+xml</dc:format><dc:type
           rdf:resource="http://purl.org/dc/dcmitype/StillImage" /><dc:title></dc:title></cc:Work></rdf:RDF></metadata><sodipodi:namedview
     inkscape:window-height="914"
     inkscape:window-width="774"
     inkscape:pageshadow="2"
     inkscape:pageopacity="0.0"
     borderopacity="1.0"
     bordercolor="#666666"
     pagecolor="#ffffff"
     id="base"
     inkscape:zoom="1"
     inkscape:cx="485.54592"
     inkscape:cy="377.30256"
     inkscape:window-x="263"
     inkscape:window-y="26"
     inkscape:current-layer="svg2"
     showgrid="true"
     inkscape:snap-grids="true"
     fit-margin-top="30"
     fit-margin-right="40"
     fit-margin-left="0"
     fit-margin-bottom="30"
     inkscape:window-maximized="0"><inkscape:grid
       type="xygrid"
       id="grid3047"
       empspacing="5"
       visible="true"
       enabled="true"
       snapvisiblegridlinesonly="true"
       spacingx="12px"
       spacingy="12px"
       originx="7.1032594px"
       originy="175.01957px" /></sodipodi:namedview><defs
     id="defs4"><style
       type="text/css"
       id="style6">
   
    .str1 {stroke:#131516;stroke-width:3}
    .str0 {stroke:#131516;stroke-width:42}
    .fil0 {fill:none}
    .fil1 {fill:#131516}
   
  </style></defs><g
     id="Layer 1"
     transform="matrix(4.588483,0,0,4.575039,-4800.3036,-25906.547)"><path
       class="fil0 str0"
       d="m 984,7559 1969,0"
       id="path9"
       style="fill:none;stroke:#131516;stroke-width:42"
       inkscape:connector-curvature="0" /><path
       class="fil0 str0"
       d="m 984,8740 1969,0"
       id="path11"
       style="fill:none;stroke:#131516;stroke-width:42"
       inkscape:connector-curvature="0" /><path
       class="fil0 str0"
       d="m 984,8149 1969,0"
       id="path13"
       style="fill:none;stroke:#131516;stroke-width:42"
       inkscape:connector-curvature="0" /><path
       class="fil0 str0"
       d="m 984,6968 1969,0"
       id="path15"
       style="fill:none;stroke:#131516;stroke-width:42"
       inkscape:connector-curvature="0" /><path
       class="fil0 str0"
       d="m 984,6378 1969,0"
       id="path17"
       style="fill:none;stroke:#131516;stroke-width:42"
       inkscape:connector-curvature="0" /><path
       class="fil1 str1"
       d="m 1239,8245 c 158,-107 276,-188 352,-244 76,-55 156,-124 238,-206 82,-82 151,-175 207,-278 44,-76 82,-164 113,-264 31,-99 47,-195 50,-286 0,-85 -11,-166 -34,-242 -22,-77 -60,-140 -114,-191 -54,-50 -124,-75 -211,-75 -84,0 -163,17 -237,50 -73,34 -125,88 -154,164 0,7 -4,16 -10,29 2,16 10,28 25,37 15,9 28,13 40,13 6,0 23,-3 49,-9 27,-6 49,-10 67,-10 53,0 100,19 143,56 42,37 63,82 63,135 0,38 -11,74 -32,107 -21,33 -50,60 -87,79 -37,20 -78,29 -122,29 -80,0 -148,-24 -204,-73 -55,-50 -83,-113 -83,-192 0,-101 31,-188 92,-262 62,-74 140,-129 236,-166 95,-38 191,-56 289,-56 107,0 209,27 304,82 96,54 171,129 227,222 56,94 85,194 85,302 0,192 -64,370 -192,535 -128,165 -286,308 -475,430 -126,83 -330,195 -611,336 l -14,-52 z M 2628,6698 c 0,-36 13,-66 39,-90 25,-25 56,-37 93,-37 32,0 62,14 89,41 27,26 40,57 40,91 0,36 -14,67 -40,92 -28,24 -59,36 -94,36 -37,0 -67,-12 -91,-39 -24,-26 -36,-57 -36,-94 z m 0,524 c 0,-36 13,-67 37,-91 25,-25 56,-37 95,-37 32,0 61,13 89,40 26,27 40,56 40,88 0,39 -13,70 -38,95 -26,25 -56,38 -91,38 -39,0 -70,-13 -95,-37 -24,-24 -37,-56 -37,-96 z"
       id="path19"
       style="fill:#131516;stroke:#131516;stroke-width:3"
       inkscape:connector-curvature="0" /></g><path
     style="fill:none;stroke:#000000;stroke-width:199.98439026;stroke-linecap:butt;stroke-linejoin:miter;stroke-miterlimit:4;stroke-opacity:1;stroke-dasharray:none"
     d="m 9550.5282,3261.9521 c 2999.7658,0 2999.7658,0 2999.7658,0"
     id="path3049"
     inkscape:connector-curvature="0" /><path
     style="fill:none;stroke:#000000;stroke-width:199.98439026;stroke-linecap:butt;stroke-linejoin:miter;stroke-miterlimit:4;stroke-opacity:1;stroke-dasharray:none"
     d="m 9550.5282,5961.7411 c 2999.7658,0 2999.7658,0 2999.7658,0"
     id="path3051"
     inkscape:connector-curvature="0" /><path
     style="fill:none;stroke:#000000;stroke-width:199.98439026;stroke-linecap:butt;stroke-linejoin:miter;stroke-miterlimit:4;stroke-opacity:1;stroke-dasharray:none"
     d="m 9550.5282,8661.5304 2999.7658,0"
     id="path3053"
     inkscape:connector-curvature="0" /><path
     style="fill:none;stroke:#000000;stroke-width:199.98439026;stroke-linecap:butt;stroke-linejoin:miter;stroke-miterlimit:4;stroke-opacity:1;stroke-dasharray:none"
     d="m 9550.5282,11361.32 2999.7658,0"
     id="path3055"
     inkscape:connector-curvature="0" /><path
     style="fill:none;stroke:#000000;stroke-width:199.98439026;stroke-linecap:butt;stroke-linejoin:miter;stroke-miterlimit:4;stroke-opacity:1;stroke-dasharray:none"
     d="m 9550.5282,14061.11 2999.7658,0"
     id="path3057"
     inkscape:connector-curvature="0" /><path
     style="fill:none;stroke:#000000;stroke-width:199.98439026;stroke-linecap:butt;stroke-linejoin:miter;stroke-miterlimit:4;stroke-opacity:1;stroke-dasharray:none"
     d="m 9550.5283,16760.899 2999.7657,0"
     id="path3061"
     inkscape:connector-curvature="0" /><text
     xml:space="preserve"
     style="font-size:1799.859375px;font-style:normal;font-variant:normal;font-weight:normal;font-stretch:normal;text-align:start;line-height:125%;letter-spacing:0px;word-spacing:0px;writing-mode:lr-tb;text-anchor:start;fill:#000000;fill-opacity:1;stroke:none;font-family:Sans;-inkscape-font-specification:Sans"
     x="10559.794"
     y="5361.7891"
     id="text3831"
     sodipodi:linespacing="125%"><tspan
       sodipodi:role="line"
       id="tspan3833"
       x="10559.794"
       y="5361.7891">H</tspan></text>
<text
     xml:space="preserve"
     style="font-size:1799.859375px;font-style:normal;font-variant:normal;font-weight:normal;font-stretch:normal;text-align:start;line-height:125%;letter-spacing:0px;word-spacing:0px;writing-mode:lr-tb;text-anchor:start;fill:#000000;fill-opacity:1;stroke:none;font-family:Sans;-inkscape-font-specification:Sans"
     x="12959.605"
     y="6861.6719"
     id="text3835"
     sodipodi:linespacing="125%"><tspan
       sodipodi:role="line"
       id="tspan3837"
       x="12959.605"
       y="6861.6719">G</tspan></text>
<text
     xml:space="preserve"
     style="font-size:1799.859375px;font-style:normal;font-variant:normal;font-weight:normal;font-stretch:normal;text-align:start;line-height:125%;letter-spacing:0px;word-spacing:0px;writing-mode:lr-tb;text-anchor:start;fill:#000000;fill-opacity:1;stroke:none;font-family:Sans;-inkscape-font-specification:Sans"
     x="10559.794"
     y="8061.5776"
     id="text3839"
     sodipodi:linespacing="125%"><tspan
       sodipodi:role="line"
       id="tspan3841"
       x="10559.794"
       y="8061.5776">F</tspan></text>
<text
     xml:space="preserve"
     style="font-size:1799.859375px;font-style:normal;font-variant:normal;font-weight:normal;font-stretch:normal;text-align:start;line-height:125%;letter-spacing:0px;word-spacing:0px;writing-mode:lr-tb;text-anchor:start;fill:#000000;fill-opacity:1;stroke:none;font-family:Sans;-inkscape-font-specification:Sans"
     x="12959.605"
     y="9561.46"
     id="text3843"
     sodipodi:linespacing="125%"><tspan
       sodipodi:role="line"
       id="tspan3845"
       x="12959.605"
       y="9561.46">D</tspan></text>
<text
     xml:space="preserve"
     style="font-size:1799.859375px;font-style:normal;font-variant:normal;font-weight:normal;font-stretch:normal;text-align:start;line-height:125%;letter-spacing:0px;word-spacing:0px;writing-mode:lr-tb;text-anchor:start;fill:#000000;fill-opacity:1;stroke:none;font-family:Sans;-inkscape-font-specification:Sans"
     x="10559.794"
     y="10761.366"
     id="text3847"
     sodipodi:linespacing="125%"><tspan
       sodipodi:role="line"
       id="tspan3849"
       x="10559.794"
       y="10761.366">S</tspan></text>
<text
     xml:space="preserve"
     style="font-size:1799.859375px;font-style:normal;font-variant:normal;font-weight:normal;font-stretch:normal;text-align:start;line-height:125%;letter-spacing:0px;word-spacing:0px;writing-mode:lr-tb;text-anchor:start;fill:#000000;fill-opacity:1;stroke:none;font-family:Sans;-inkscape-font-specification:Sans"
     x="12959.605"
     y="12261.249"
     id="text3851"
     sodipodi:linespacing="125%"><tspan
       sodipodi:role="line"
       id="tspan3853"
       x="12959.605"
       y="12261.249">k</tspan></text>
<text
     xml:space="preserve"
     style="font-size:1799.859375px;font-style:normal;font-variant:normal;font-weight:normal;font-stretch:normal;text-align:start;line-height:125%;letter-spacing:0px;word-spacing:0px;writing-mode:lr-tb;text-anchor:start;fill:#000000;fill-opacity:1;stroke:none;font-family:Sans;-inkscape-font-specification:Sans"
     x="10859.77"
     y="13461.155"
     id="text3855"
     sodipodi:linespacing="125%"><tspan
       sodipodi:role="line"
       id="tspan3857"
       x="10859.77"
       y="13461.155">j</tspan></text>
<text
     xml:space="preserve"
     style="font-size:1799.859375px;font-style:normal;font-variant:normal;font-weight:normal;font-stretch:normal;text-align:start;line-height:125%;letter-spacing:0px;word-spacing:0px;writing-mode:lr-tb;text-anchor:start;fill:#000000;fill-opacity:1;stroke:none;font-family:Sans;-inkscape-font-specification:Sans"
     x="12959.605"
     y="14961.038"
     id="text3859"
     sodipodi:linespacing="125%"><tspan
       sodipodi:role="line"
       id="tspan3861"
       x="12959.605"
       y="14961.038">h</tspan></text>
<text
     xml:space="preserve"
     style="font-size:1799.859375px;font-style:normal;font-variant:normal;font-weight:normal;font-stretch:normal;text-align:start;line-height:125%;letter-spacing:0px;word-spacing:0px;writing-mode:lr-tb;text-anchor:start;fill:#000000;fill-opacity:1;stroke:none;font-family:Sans;-inkscape-font-specification:Sans"
     x="10559.794"
     y="16160.944"
     id="text3863"
     sodipodi:linespacing="125%"><tspan
       sodipodi:role="line"
       id="tspan3865"
       x="10559.794"
       y="16160.944">g</tspan></text>
<text
     xml:space="preserve"
     style="font-size:1799.859375px;font-style:normal;font-variant:normal;font-weight:normal;font-stretch:normal;text-align:start;line-height:125%;letter-spacing:0px;word-spacing:0px;writing-mode:lr-tb;text-anchor:start;fill:#000000;fill-opacity:1;stroke:none;font-family:Sans;-inkscape-font-specification:Sans"
     x="12959.605"
     y="17660.828"
     id="text3867"
     sodipodi:linespacing="125%"><tspan
       sodipodi:role="line"
       id="tspan3869"
       x="12959.605"
       y="17660.828">f</tspan></text>
<text
     xml:space="preserve"
     style="font-size:1799.859375px;font-style:normal;font-variant:normal;font-weight:normal;font-stretch:normal;text-align:start;line-height:125%;letter-spacing:0px;word-spacing:0px;writing-mode:lr-tb;text-anchor:start;fill:#000000;fill-opacity:1;stroke:none;font-family:Sans;-inkscape-font-specification:Sans"
     x="10559.794"
     y="18860.734"
     id="text3871"
     sodipodi:linespacing="125%"><tspan
       sodipodi:role="line"
       id="tspan3873"
       x="10559.794"
       y="18860.734">d</tspan></text>
<text
     xml:space="preserve"
     style="font-size:1799.859375px;font-style:normal;font-variant:normal;font-weight:normal;font-stretch:normal;text-align:start;line-height:125%;letter-spacing:0px;word-spacing:0px;writing-mode:lr-tb;text-anchor:start;fill:#000000;fill-opacity:1;stroke:none;font-family:Sans;-inkscape-font-specification:Sans"
     x="13259.582"
     y="4161.8823"
     id="text3875"
     sodipodi:linespacing="125%"><tspan
       sodipodi:role="line"
       id="tspan3877"
       x="13259.582"
       y="4161.8823">J</tspan></text>
<text
     xml:space="preserve"
     style="font-size:1799.859375px;font-style:normal;font-variant:normal;font-weight:normal;font-stretch:normal;text-align:start;line-height:125%;letter-spacing:0px;word-spacing:0px;writing-mode:lr-tb;text-anchor:start;fill:#000000;fill-opacity:1;stroke:none;font-family:Sans;-inkscape-font-specification:Sans"
     x="10559.794"
     y="2661.999"
     id="text3879"
     sodipodi:linespacing="125%"><tspan
       sodipodi:role="line"
       id="tspan3881"
       x="10559.794"
       y="2661.999">K</tspan></text>
</svg>