<?xml version="1.0" encoding="UTF-8" standalone="no"?>
<!-- Created with Sodipodi ("http://www.sodipodi.com/") -->

<svg
   xmlns:dc="http://purl.org/dc/elements/1.1/"
   xmlns:cc="http://creativecommons.org/ns#"
   xmlns:rdf="http://www.w3.org/1999/02/22-rdf-syntax-ns#"
   xmlns:svg="http://www.w3.org/2000/svg"
   xmlns="http://www.w3.org/2000/svg"
   xmlns:sodipodi="http://sodipodi.sourceforge.net/DTD/sodipodi-0.dtd"
   xmlns:inkscape="http://www.inkscape.org/namespaces/inkscape"
   xml:space="preserve"
   width="609.25598"
   height="801.8056"
   style="fill-rule:evenodd"
   viewBox="0 0 12924.055 12248.85"
   id="svg2"
   sodipodi:version="0.34"
   inkscape:version="0.48.3.1 r9886"
   sodipodi:docname="Treble_clef.svg"
   version="1.1"><metadata
     id="metadata22"><rdf:RDF><cc:Work
         rdf:about=""><dc:format>image/svg+xml</dc:format><dc:type
           rdf:resource="http://purl.org/dc/dcmitype/StillImage" /><dc:title></dc:title></cc:Work></rdf:RDF></metadata><sodipodi:namedview
     inkscape:window-height="736"
     inkscape:window-width="1411"
     inkscape:pageshadow="2"
     inkscape:pageopacity="0.0"
     borderopacity="1.0"
     bordercolor="#666666"
     pagecolor="#ffffff"
     id="base"
     inkscape:zoom="1"
     inkscape:cx="352.3052"
     inkscape:cy="730.03068"
     inkscape:window-x="77"
     inkscape:window-y="354"
     inkscape:current-layer="svg2"
     showgrid="true"
     fit-margin-right="40"
     fit-margin-top="30"
     fit-margin-left="0"
     fit-margin-bottom="0"
     inkscape:snap-grids="true"
     inkscape:showpageshadow="true"
     inkscape:window-maximized="0"><inkscape:grid
       type="xygrid"
       id="grid3047"
       empspacing="5"
       visible="true"
       enabled="true"
       snapvisiblegridlinesonly="true"
       spacingx="1.2px"
       spacingy="3.5px"
       originx="-8.3907059e-06px"
       originy="6.4995583px" /></sodipodi:namedview><defs
     id="defs4"><style
       type="text/css"
       id="style6">
   
    .str0 {stroke:#131516;stroke-width:3}
    .str1 {stroke:#131516;stroke-width:42}
    .fil1 {fill:none}
    .fil0 {fill:#131516}
   
  </style></defs><g
     id="Layer 1"
     transform="matrix(3.817349,0,0,3.808092,-3676.2043,-22246.167)"><path
       class="fil0 str0"
       d="m 2002,7851 c -61,17 -116,55 -167,113 -51,59 -76,124 -76,194 0,44 15,94 44,147 29,54 73,93 130,118 19,4 28,14 28,28 0,5 -7,10 -24,14 -91,-23 -166,-72 -224,-145 -58,-74 -88,-158 -90,-254 3,-103 34,-199 93,-287 60,-89 137,-152 231,-189 l -69,-355 c -154,128 -279,261 -376,401 -97,139 -147,290 -151,453 2,73 17,144 45,212 28,69 70,131 126,188 113,113 260,172 439,178 61,-4 126,-15 196,-33 l -155,-783 z m 72,-10 156,769 c 154,-62 231,-197 231,-403 -9,-69 -29,-131 -63,-186 -33,-56 -77,-100 -133,-132 -56,-32 -119,-48 -191,-48 z M 1869,6801 c 33,-20 71,-55 112,-104 41,-48 81,-105 119,-169 39,-65 70,-131 93,-198 23,-66 34,-129 34,-187 0,-25 -2,-50 -7,-72 -4,-36 -15,-64 -34,-83 -19,-18 -43,-28 -73,-28 -60,0 -114,37 -162,111 -37,64 -68,140 -90,226 -23,87 -36,173 -38,260 5,99 21,180 46,244 z m -63,58 c -45,-162 -70,-327 -75,-495 1,-108 12,-209 33,-303 20,-94 49,-175 87,-245 37,-70 80,-123 128,-159 43,-32 74,-49 91,-49 13,0 24,5 34,14 10,9 23,24 39,44 119,169 179,373 179,611 0,113 -15,223 -45,333 -29,109 -72,213 -129,310 -58,98 -126,183 -205,256 l 81,394 c 44,-5 74,-9 91,-9 76,0 144,16 207,48 63,32 117,75 161,130 44,54 78,116 102,186 23,70 36,143 36,219 0,118 -31,226 -93,323 -62,97 -155,168 -280,214 8,49 22,120 43,211 20,92 35,165 45,219 10,54 14,106 14,157 0,79 -19,149 -57,211 -39,62 -91,110 -157,144 -65,34 -137,51 -215,51 -110,0 -206,-31 -288,-92 -82,-62 -126,-145 -130,-251 3,-47 14,-91 34,-133 20,-42 47,-76 82,-102 34,-27 75,-41 122,-44 39,0 76,11 111,32 34,22 62,51 83,88 20,37 31,78 31,122 0,59 -20,109 -60,150 -40,41 -91,62 -152,62 l -23,0 c 39,60 103,91 192,91 45,0 91,-10 137,-28 47,-19 86,-44 119,-76 33,-32 55,-66 64,-102 17,-41 25,-98 25,-169 0,-48 -5,-96 -14,-144 -9,-47 -23,-110 -42,-188 -19,-77 -33,-137 -41,-178 -60,15 -122,23 -187,23 -109,0 -212,-22 -309,-67 -97,-45 -182,-107 -256,-187 -73,-80 -130,-170 -171,-272 -40,-101 -61,-207 -62,-317 4,-102 23,-200 59,-292 36,-93 82,-181 139,-263 57,-82 116,-157 177,-224 62,-66 143,-151 245,-254 z"
       id="path9"
       style="fill:#131516;stroke:#131516;stroke-width:3"
       inkscape:connector-curvature="0" /><path
       class="fil1 str1"
       d="m 984,7559 1969,0"
       id="path11"
       style="fill:none;stroke:#131516;stroke-width:42"
       inkscape:connector-curvature="0" /><path
       class="fil1 str1"
       d="m 984,8740 1969,0"
       id="path13"
       style="fill:none;stroke:#131516;stroke-width:42"
       inkscape:connector-curvature="0" /><path
       class="fil1 str1"
       d="m 984,8149 1969,0"
       id="path15"
       style="fill:none;stroke:#131516;stroke-width:42"
       inkscape:connector-curvature="0" /><path
       class="fil1 str1"
       d="m 984,6968 1969,0"
       id="path17"
       style="fill:none;stroke:#131516;stroke-width:42"
       inkscape:connector-curvature="0" /><path
       class="fil1 str1"
       d="m 984,6378 1969,0"
       id="path19"
       style="fill:none;stroke:#131516;stroke-width:42"
       inkscape:connector-curvature="0" /></g><path
     style="fill:none;stroke:#000000;stroke-width:169.70278931;stroke-linecap:butt;stroke-linejoin:miter;stroke-miterlimit:4;stroke-opacity:1;stroke-dasharray:none"
     d="m 8145.7336,2080.9586 c 2545.5414,0 2545.5414,0 2545.5414,0"
     id="path3819"
     inkscape:connector-curvature="0" /><path
     style="fill:none;stroke:#000000;stroke-width:169.70278931;stroke-linecap:butt;stroke-linejoin:miter;stroke-miterlimit:4;stroke-opacity:1;stroke-dasharray:none"
     d="m 8145.7336,4308.3076 c 2545.5414,0 2545.5414,0 2545.5414,0"
     id="path3821"
     inkscape:connector-curvature="0" /><path
     style="fill:none;stroke:#000000;stroke-width:169.70278931;stroke-linecap:butt;stroke-linejoin:miter;stroke-miterlimit:4;stroke-opacity:1;stroke-dasharray:none"
     d="m 8145.7336,6535.6567 2545.5414,0"
     id="path3823"
     inkscape:connector-curvature="0" /><path
     style="fill:none;stroke:#000000;stroke-width:169.70278931;stroke-linecap:butt;stroke-linejoin:miter;stroke-miterlimit:4;stroke-opacity:1;stroke-dasharray:none"
     d="m 8145.7336,8763.0057 2545.5414,0"
     id="path3825"
     inkscape:connector-curvature="0" /><path
     style="fill:none;stroke:#000000;stroke-width:169.70278931;stroke-linecap:butt;stroke-linejoin:miter;stroke-miterlimit:4;stroke-opacity:1;stroke-dasharray:none"
     d="m 8145.7336,10990.355 2545.5414,0"
     id="path3827"
     inkscape:connector-curvature="0" /><path
     style="fill:none;stroke:#000000;stroke-width:169.70278931;stroke-linecap:butt;stroke-linejoin:miter;stroke-miterlimit:4;stroke-opacity:1;stroke-dasharray:none"
     d="m 8145.7336,-146.39031 c 2545.5414,0 2545.5414,0 2545.5414,0"
     id="path3829"
     inkscape:connector-curvature="0" /><path
     style="fill:none;stroke:#000000;stroke-width:169.70278931;stroke-linecap:butt;stroke-linejoin:miter;stroke-miterlimit:4;stroke-opacity:1;stroke-dasharray:none"
     d="m 10691.275,13217.704 -2545.5414,0"
     id="path3831"
     inkscape:connector-curvature="0" /><text
     xml:space="preserve"
     style="font-size:1527.32507324px;font-style:normal;font-variant:normal;font-weight:normal;font-stretch:normal;text-align:start;line-height:125%;letter-spacing:0px;word-spacing:0px;writing-mode:lr-tb;text-anchor:start;fill:#000000;fill-opacity:1;stroke:none;font-family:Courier 10 Pitch;-inkscape-font-specification:Courier 10 Pitch"
     x="11200.384"
     y="13588.93"
     id="text3833"
     sodipodi:linespacing="125%"><tspan
       sodipodi:role="line"
       id="tspan3835"
       x="11200.384"
       y="13588.93">s</tspan></text>
<text
     xml:space="preserve"
     style="font-size:1527.32507324px;font-style:normal;font-variant:normal;font-weight:normal;font-stretch:normal;text-align:start;line-height:125%;letter-spacing:0px;word-spacing:0px;writing-mode:lr-tb;text-anchor:start;fill:#000000;fill-opacity:1;stroke:none;font-family:Courier 10 Pitch;-inkscape-font-specification:Courier 10 Pitch"
     x="9163.9502"
     y="12475.255"
     id="text3837"
     sodipodi:linespacing="125%"><tspan
       sodipodi:role="line"
       id="tspan3839"
       x="9163.9502"
       y="12475.255">d</tspan></text>
<text
     xml:space="preserve"
     style="font-size:1527.32507324px;font-style:normal;font-variant:normal;font-weight:normal;font-stretch:normal;text-align:start;line-height:125%;letter-spacing:0px;word-spacing:0px;writing-mode:lr-tb;text-anchor:start;fill:#000000;fill-opacity:1;stroke:none;font-family:Courier 10 Pitch;-inkscape-font-specification:Courier 10 Pitch"
     x="11200.384"
     y="11361.581"
     id="text3841"
     sodipodi:linespacing="125%"><tspan
       sodipodi:role="line"
       id="tspan3843"
       x="11200.384"
       y="11361.581">f</tspan></text>
<text
     xml:space="preserve"
     style="font-size:1527.32507324px;font-style:normal;font-variant:normal;font-weight:normal;font-stretch:normal;text-align:start;line-height:125%;letter-spacing:0px;word-spacing:0px;writing-mode:lr-tb;text-anchor:start;fill:#000000;fill-opacity:1;stroke:none;font-family:Courier 10 Pitch;-inkscape-font-specification:Courier 10 Pitch"
     x="9163.9502"
     y="10247.906"
     id="text3845"
     sodipodi:linespacing="125%"><tspan
       sodipodi:role="line"
       id="tspan3847"
       x="9163.9502"
       y="10247.906">g</tspan></text>
<text
     xml:space="preserve"
     style="font-size:1527.32507324px;font-style:normal;font-variant:normal;font-weight:normal;font-stretch:normal;text-align:start;line-height:125%;letter-spacing:0px;word-spacing:0px;writing-mode:lr-tb;text-anchor:start;fill:#000000;fill-opacity:1;stroke:none;font-family:Courier 10 Pitch;-inkscape-font-specification:Courier 10 Pitch"
     x="11200.384"
     y="9134.2314"
     id="text3849"
     sodipodi:linespacing="125%"><tspan
       sodipodi:role="line"
       id="tspan3851"
       x="11200.384"
       y="9134.2314">h</tspan></text>
<text
     xml:space="preserve"
     style="font-size:1527.32507324px;font-style:normal;font-variant:normal;font-weight:normal;font-stretch:normal;text-align:start;line-height:125%;letter-spacing:0px;word-spacing:0px;writing-mode:lr-tb;text-anchor:start;fill:#000000;fill-opacity:1;stroke:none;font-family:Courier 10 Pitch;-inkscape-font-specification:Courier 10 Pitch"
     x="9163.9502"
     y="8020.5562"
     id="text3853"
     sodipodi:linespacing="125%"><tspan
       sodipodi:role="line"
       id="tspan3855"
       x="9163.9502"
       y="8020.5562">j</tspan></text>
<text
     xml:space="preserve"
     style="font-size:1527.32507324px;font-style:normal;font-variant:normal;font-weight:normal;font-stretch:normal;text-align:start;line-height:125%;letter-spacing:0px;word-spacing:0px;writing-mode:lr-tb;text-anchor:start;fill:#000000;fill-opacity:1;stroke:none;font-family:Courier 10 Pitch;-inkscape-font-specification:Courier 10 Pitch"
     x="11179.171"
     y="6917.4878"
     id="text3857"
     sodipodi:linespacing="125%"><tspan
       sodipodi:role="line"
       id="tspan3859"
       x="11179.171"
       y="6917.4878">k</tspan></text>
<text
     xml:space="preserve"
     style="font-size:1527.32507324px;font-style:normal;font-variant:normal;font-weight:normal;font-stretch:normal;text-align:start;line-height:125%;letter-spacing:0px;word-spacing:0px;writing-mode:lr-tb;text-anchor:start;fill:#000000;fill-opacity:1;stroke:none;font-family:Courier 10 Pitch;-inkscape-font-specification:Courier 10 Pitch"
     x="9163.9502"
     y="5793.207"
     id="text3861"
     sodipodi:linespacing="125%"><tspan
       sodipodi:role="line"
       id="tspan3863"
       x="9163.9502"
       y="5793.207">S</tspan></text>
<text
     xml:space="preserve"
     style="font-size:1527.32507324px;font-style:normal;font-variant:normal;font-weight:normal;font-stretch:normal;text-align:start;line-height:125%;letter-spacing:0px;word-spacing:0px;writing-mode:lr-tb;text-anchor:start;fill:#000000;fill-opacity:1;stroke:none;font-family:Courier 10 Pitch;-inkscape-font-specification:Courier 10 Pitch"
     x="11200.384"
     y="4679.5322"
     id="text3865"
     sodipodi:linespacing="125%"><tspan
       sodipodi:role="line"
       id="tspan3867"
       x="11200.384"
       y="4679.5322">D</tspan></text>
<text
     xml:space="preserve"
     style="font-size:1527.32507324px;font-style:normal;font-variant:normal;font-weight:normal;font-stretch:normal;text-align:start;line-height:125%;letter-spacing:0px;word-spacing:0px;writing-mode:lr-tb;text-anchor:start;fill:#000000;fill-opacity:1;stroke:none;font-family:Courier 10 Pitch;-inkscape-font-specification:Courier 10 Pitch"
     x="9163.9502"
     y="3565.8579"
     id="text3869"
     sodipodi:linespacing="125%"><tspan
       sodipodi:role="line"
       id="tspan3871"
       x="9163.9502"
       y="3565.8579">F</tspan></text>
<text
     xml:space="preserve"
     style="font-size:1527.32507324px;font-style:normal;font-variant:normal;font-weight:normal;font-stretch:normal;text-align:start;line-height:125%;letter-spacing:0px;word-spacing:0px;writing-mode:lr-tb;text-anchor:start;fill:#000000;fill-opacity:1;stroke:none;font-family:Courier 10 Pitch;-inkscape-font-specification:Courier 10 Pitch"
     x="11200.384"
     y="2452.1836"
     id="text3873"
     sodipodi:linespacing="125%"><tspan
       sodipodi:role="line"
       id="tspan3875"
       x="11200.384"
       y="2452.1836">G</tspan></text>
<text
     xml:space="preserve"
     style="font-size:1527.32507324px;font-style:normal;font-variant:normal;font-weight:normal;font-stretch:normal;text-align:start;line-height:125%;letter-spacing:0px;word-spacing:0px;writing-mode:lr-tb;text-anchor:start;fill:#000000;fill-opacity:1;stroke:none;font-family:Courier 10 Pitch;-inkscape-font-specification:Courier 10 Pitch"
     x="9163.9502"
     y="1338.509"
     id="text3877"
     sodipodi:linespacing="125%"><tspan
       sodipodi:role="line"
       id="tspan3879"
       x="9163.9502"
       y="1338.509">H</tspan></text>
<text
     xml:space="preserve"
     style="font-size:1527.32507324px;font-style:normal;font-variant:normal;font-weight:normal;font-stretch:normal;text-align:start;line-height:125%;letter-spacing:0px;word-spacing:0px;writing-mode:lr-tb;text-anchor:start;fill:#000000;fill-opacity:1;stroke:none;font-family:Courier 10 Pitch;-inkscape-font-specification:Courier 10 Pitch"
     x="11200.384"
     y="224.83455"
     id="text3881"
     sodipodi:linespacing="125%"><tspan
       sodipodi:role="line"
       id="tspan3883"
       x="11200.384"
       y="224.83455">J</tspan></text>
<text
     xml:space="preserve"
     style="font-size:1527.32507324px;font-style:normal;font-variant:normal;font-weight:normal;font-stretch:normal;text-align:start;line-height:125%;letter-spacing:0px;word-spacing:0px;writing-mode:lr-tb;text-anchor:start;fill:#000000;fill-opacity:1;stroke:none;font-family:Courier 10 Pitch;-inkscape-font-specification:Courier 10 Pitch"
     x="9163.9502"
     y="-888.84009"
     id="text3885"
     sodipodi:linespacing="125%"><tspan
       sodipodi:role="line"
       id="tspan3887"
       x="9163.9502"
       y="-888.84009">K</tspan></text>
</svg>